<?xml version="1.0" encoding="utf-8"?>
<!-- Generator: Adobe Illustrator 26.0.0, SVG Export Plug-In . SVG Version: 6.00 Build 0)  -->
<svg version="1.1" id="Layer_1" xmlns="http://www.w3.org/2000/svg" xmlns:xlink="http://www.w3.org/1999/xlink" x="0px" y="0px"
	 viewBox="0 0 60 60" style="enable-background:new 0 0 60 60;" xml:space="preserve">
<style type="text/css">
	.st0{fill:#131F35;}
	.st1{fill:#50B848;}
</style>
<path class="st0" d="M49,56.8H4.7c-0.7,0-1.3-0.3-1.7-1c-0.3-0.6-0.4-1.3,0-1.9l4.8-8.7c0.1-0.3,0.4-0.4,0.7-0.4h36.2
	c0.3,0,0.5,0.2,0.7,0.4l5.2,8.6c0.4,0.6,0.4,1.3,0,2C50.3,56.5,49.7,56.8,49,56.8z M8.9,46.5l-4.6,8.3c-0.1,0.1,0,0.3,0,0.3
	c0,0.1,0.1,0.2,0.3,0.2H49c0.2,0,0.2-0.1,0.3-0.2c0-0.1,0.1-0.2,0-0.3l-5-8.2C44.2,46.5,8.9,46.5,8.9,46.5z"/>
<path class="st0" d="M40.8,50.2H25.4c-0.4,0-0.8-0.4-0.8-0.8s0.4-0.8,0.8-0.8h15.4c0.4,0,0.8,0.4,0.8,0.8
	C41.6,49.8,41.2,50.2,40.8,50.2z"/>
<path class="st0" d="M14.9,50.2h-2.6c-0.4,0-0.8-0.4-0.8-0.8s0.4-0.8,0.8-0.8h2.6c0.4,0,0.8,0.4,0.8,0.8
	C15.7,49.8,15.3,50.2,14.9,50.2z"/>
<path class="st0" d="M21.9,50.2h-2.6c-0.4,0-0.8-0.4-0.8-0.8s0.4-0.8,0.8-0.8h2.6c0.4,0,0.8,0.4,0.8,0.8
	C22.7,49.8,22.4,50.2,21.9,50.2z"/>
<path class="st0" d="M31.5,53.4H9c-0.4,0-0.8-0.4-0.8-0.8s0.4-0.8,0.8-0.8h22.4c0.4,0,0.8,0.4,0.8,0.8S31.9,53.4,31.5,53.4z"/>
<path class="st0" d="M37.7,53.4h-2.5c-0.4,0-0.8-0.4-0.8-0.8s0.4-0.8,0.8-0.8h2.5c0.4,0,0.8,0.4,0.8,0.8S38.1,53.4,37.7,53.4z"/>
<path class="st0" d="M44.3,53.4h-2.5c-0.4,0-0.8-0.4-0.8-0.8s0.4-0.8,0.8-0.8h2.5c0.4,0,0.8,0.4,0.8,0.8S44.7,53.4,44.3,53.4z"/>
<path class="st0" d="M48,42.2H4.9c-2.7,0-4.9-2.2-4.9-5V9.2c0-2.7,2.1-4.9,4.7-4.9h34.9c0.4,0,0.8,0.4,0.8,0.8S40,5.9,39.6,5.9H4.7
	C3,5.9,1.6,7.4,1.6,9.2v27.9c0,1.9,1.5,3.4,3.2,3.4H48c1.8,0,3.2-1.5,3.2-3.4V9.2c0-1.8-1.4-3.3-3.1-3.3h-3.6
	c-0.4,0-0.8-0.4-0.8-0.8s0.4-0.8,0.8-0.8h3.6c2.6,0,4.7,2.2,4.7,4.9v27.9C52.9,39.9,50.7,42.2,48,42.2z"/>
<rect x="24.8" y="9.5" class="st1" width="22.5" height="27"/>
<rect x="15" y="10.3" class="st1" width="3" height="26.5"/>
<path class="st0" d="M22.2,38.2h-8.1c-0.4,0-0.8-0.4-0.8-0.8s0.4-0.8,0.8-0.8h8.1c0.4,0,0.8,0.4,0.8,0.8S22.6,38.2,22.2,38.2z"/>
<path class="st0" d="M47.6,38.2H25.5c-0.4,0-0.8-0.4-0.8-0.8s0.4-0.8,0.8-0.8h21.3V10.3H6.5v26.3h4c0.4,0,0.8,0.4,0.8,0.8
	s-0.4,0.8-0.8,0.8H5.7c-0.4,0-0.8-0.4-0.8-0.8v-28c0-0.4,0.4-0.8,0.8-0.8h41.9c0.4,0,0.8,0.4,0.8,0.8v28
	C48.4,37.9,48.1,38.2,47.6,38.2z"/>
<path class="st0" d="M57,46.2c-1.7,0-3,1.4-3,3v4.1c0,1.7,1.4,3,3,3s3-1.4,3-3v-4.1C60,47.6,58.6,46.2,57,46.2z M57.5,50.1
	c0,0.3-0.2,0.5-0.5,0.5s-0.5-0.2-0.5-0.5v-1.7c0-0.3,0.2-0.5,0.5-0.5s0.5,0.2,0.5,0.5V50.1z"/>
</svg>
