<?xml version="1.0" encoding="utf-8"?>
<!-- Generator: Adobe Illustrator 26.0.0, SVG Export Plug-In . SVG Version: 6.00 Build 0)  -->
<svg version="1.1" id="Layer_1" xmlns="http://www.w3.org/2000/svg" xmlns:xlink="http://www.w3.org/1999/xlink" x="0px" y="0px"
	 viewBox="0 0 60 60" style="enable-background:new 0 0 60 60;" xml:space="preserve">
<style type="text/css">
	.st0{fill:#50B848;}
	.st1{fill:#131F35;}
	.st2{fill:none;}
</style>
<g>
	<rect x="0" y="51.1" class="st0" width="59.7" height="4.1"/>
	<path class="st0" d="M59,14v34.8c0,1.7-1.3,3-3,3h-6.5V10.6h6C57.5,10.6,59,12.1,59,14z"/>
	<path class="st1" d="M17.1,52.8H5.6C2.5,52.8,0,50.2,0,47V15.4c0-3.1,2.4-5.6,5.4-5.6h39.4c0.5,0,1,0.4,1,1s-0.4,1-1,1H5.4
		c-1.9,0-3.4,1.6-3.4,3.7V47c0,2.1,1.6,3.8,3.6,3.8h11.5c0.5,0,1,0.4,1,1C18.1,52.3,17.7,52.8,17.1,52.8z"/>
	<path class="st1" d="M54.4,52.8H29.3c-0.5,0-1-0.4-1-1s0.4-1,1-1h25.1c2,0,3.6-1.7,3.6-3.8V15.4c0-2-1.5-3.7-3.4-3.7h-4.1
		c-0.5,0-1-0.4-1-1s0.4-1,1-1h4.1c3,0,5.4,2.5,5.4,5.6V47C60,50.2,57.5,52.8,54.4,52.8z"/>
	<path class="st1" d="M39.4,11.7c-0.1,0-0.1,0-0.2,0c-0.5-0.1-0.9-0.6-0.8-1.1l0.7-3.8H20.9l0.6,3.8c0.1,0.5-0.3,1-0.8,1.1
		c-0.5,0.1-1-0.3-1.1-0.8l-0.8-5c0-0.3,0-0.6,0.2-0.8c0.2-0.2,0.5-0.3,0.7-0.3h20.6c0.3,0,0.6,0.1,0.7,0.3s0.3,0.5,0.2,0.8l-0.9,5
		C40.3,11.4,39.9,11.7,39.4,11.7z"/>
	<path class="st0" d="M38.9,18.4c-7.1,0-12.9,5.8-12.9,12.9c0,7.1,5.8,12.9,12.9,12.9c7.1,0,12.9-5.8,12.9-12.9
		C51.8,24.2,46,18.4,38.9,18.4z M38.9,38.6c-4,0-7.3-3.3-7.3-7.3s3.3-7.3,7.3-7.3s7.3,3.3,7.3,7.3C46.2,35.3,42.9,38.6,38.9,38.6z"
		/>
	<path class="st1" d="M38.9,39.5c-4.6,0-8.3-3.7-8.3-8.3s3.7-8.3,8.3-8.3s8.3,3.7,8.3,8.3S43.5,39.5,38.9,39.5z M38.9,25
		c-3.5,0-6.3,2.8-6.3,6.3s2.8,6.3,6.3,6.3s6.3-2.8,6.3-6.3S42.4,25,38.9,25z"/>
	<path class="st1" d="M9.7,27.2c-2.5,0-4.6-2-4.6-4.6s2-4.6,4.6-4.6s4.6,2,4.6,4.6S12.2,27.2,9.7,27.2z M9.7,20
		c-1.4,0-2.6,1.2-2.6,2.6c0,1.4,1.2,2.6,2.6,2.6s2.6-1.2,2.6-2.6C12.3,21.2,11.1,20,9.7,20z"/>
	<g>
		<line class="st2" x1="1" y1="22.7" x2="6.1" y2="22.7"/>
		<path class="st1" d="M6.1,23.6H1c-0.5,0-1-0.4-1-1s0.4-1,1-1h5.1c0.5,0,1,0.4,1,1S6.6,23.6,6.1,23.6z"/>
	</g>
	<g>
		<line class="st2" x1="17.1" y1="22.7" x2="29.3" y2="22.7"/>
		<path class="st1" d="M29.3,23.6H17.1c-0.5,0-1-0.4-1-1s0.4-1,1-1h12.2c0.5,0,1,0.4,1,1S29.9,23.6,29.3,23.6z"/>
	</g>
	<g>
		<line class="st2" x1="48.5" y1="22.7" x2="59" y2="22.7"/>
		<path class="st1" d="M59,23.6H48.5c-0.5,0-1-0.4-1-1s0.4-1,1-1H59c0.5,0,1,0.4,1,1S59.5,23.6,59,23.6z"/>
	</g>
	<path class="st1" d="M12.3,11.6H8.9c-1.1,0-2-0.9-2-2V9.1c0-1.1,0.9-2,2-2h3.4c1.1,0,2,0.9,2,2v0.4C14.3,10.7,13.4,11.6,12.3,11.6z
		"/>
	<g>
		<line class="st2" x1="1.4" y1="38.6" x2="21.7" y2="38.6"/>
		<path class="st1" d="M21.7,39.5H1.4c-0.5,0-1-0.4-1-1s0.4-1,1-1h20.2c0.5,0,1,0.4,1,1S22.2,39.5,21.7,39.5z"/>
	</g>
	<path class="st1" d="M38.9,45.5c-7.8,0-14.2-6.4-14.2-14.2s6.4-14.2,14.2-14.2s14.2,6.4,14.2,14.2S46.7,45.5,38.9,45.5z M38.9,19.7
		c-6.4,0-11.6,5.2-11.6,11.6s5.2,11.6,11.6,11.6s11.6-5.2,11.6-11.6C50.5,24.9,45.3,19.7,38.9,19.7z"/>
</g>
</svg>
