<?xml version="1.0" encoding="utf-8"?>
<!-- Generator: Adobe Illustrator 26.0.0, SVG Export Plug-In . SVG Version: 6.00 Build 0)  -->
<svg version="1.1" id="Layer_1" xmlns="http://www.w3.org/2000/svg" xmlns:xlink="http://www.w3.org/1999/xlink" x="0px" y="0px"
	 viewBox="0 0 60 60" style="enable-background:new 0 0 60 60;" xml:space="preserve">
<style type="text/css">
	.st0{fill:#50B848;}
	.st1{fill:#131F35;}
</style>
<g>
	<rect x="26.9" y="20.4" class="st0" width="5.9" height="2"/>
	<path class="st0" d="M33.2,41.4c-0.2,0-0.3-0.1-0.3-0.1H22.1C15,43.5,9.3,53.8,2.9,50.9C1.7,50.4,1.1,49,1,47.1
		c-0.2,3.3,0.2,5.9,1.9,6.7c6.4,2.8,12.1-7.5,19.2-9.6h10.8c0,0,0.1,0,0.2,0C32.9,43.2,32.9,42.3,33.2,41.4z"/>
	<path class="st0" d="M59.2,47.1c-0.2,1.9-0.8,3.3-1.9,3.9c-4.3,2-8.4-2.3-12.8-5.8c-0.3,0.7-0.8,1.3-1.3,1.8c0.1,0,0.2,0.1,0.2,0.1
		c4.8,3.7,9.2,8.8,13.9,6.7C58.9,53,59.4,50.4,59.2,47.1z"/>
	<g>
		<path class="st0" d="M41,45c0,1.6-1.3,2.8-2.8,2.8s-2.8-1.3-2.8-2.8s1.3-2.8,2.8-2.8C39.7,42.1,41,43.4,41,45z"/>
		<path class="st1" d="M38.2,48.3c-1.8,0-3.3-1.5-3.3-3.3s1.5-3.3,3.3-3.3s3.3,1.5,3.3,3.3S40,48.3,38.2,48.3z M38.2,42.7
			c-1.3,0-2.3,1-2.3,2.3s1,2.3,2.3,2.3s2.3-1,2.3-2.3C40.5,43.7,39.5,42.7,38.2,42.7z"/>
	</g>
	<path class="st1" d="M46.3,28.9c0,1-0.8,1.8-1.8,1.8s-1.8-0.8-1.8-1.8c0-1,0.8-1.8,1.8-1.8S46.3,27.9,46.3,28.9z"/>
	<circle class="st1" cx="44.6" cy="37.3" r="1.8"/>
	<circle class="st1" cx="48.8" cy="33.1" r="1.8"/>
	<circle class="st1" cx="40.4" cy="33.1" r="1.8"/>
	<g>
		<path class="st0" d="M21,31.5h-3.1c-0.2,0-0.4-0.2-0.4-0.4V28c0-0.2-0.2-0.4-0.4-0.4h-2.4c-0.2,0-0.4,0.2-0.4,0.4V31
			c0,0.2-0.2,0.4-0.4,0.4h-3.1c-0.2,0-0.4,0.2-0.4,0.4v2.4c0,0.2,0.2,0.4,0.4,0.4h3.1c0.2,0,0.4,0.2,0.4,0.4v3.1
			c0,0.2,0.2,0.4,0.4,0.4h2.4c0.2,0,0.4-0.2,0.4-0.4v-3.1c0-0.2,0.2-0.4,0.4-0.4H21c0.2,0,0.4-0.2,0.4-0.4v-2.4
			C21.4,31.6,21.2,31.5,21,31.5z"/>
		<path class="st1" d="M17.1,39.1h-2.4c-0.5,0-0.9-0.4-0.9-0.9v-3h-3c-0.5,0-0.9-0.4-0.9-0.9v-2.4c0-0.5,0.4-0.9,0.9-0.9h3v-3
			c0-0.5,0.4-0.9,0.9-0.9h2.4c0.5,0,0.9,0.4,0.9,0.9v3h3c0.5,0,0.9,0.4,0.9,0.9v2.4c0,0.5-0.4,0.9-0.9,0.9h-3v3
			C18,38.7,17.6,39.1,17.1,39.1z M14.8,38.1H17v-3c0-0.5,0.4-0.9,0.9-0.9h3V32h-3c-0.5,0-0.9-0.4-0.9-0.9v-3h-2.2v3
			c0,0.5-0.4,0.9-0.9,0.9h-3v2.2h3c0.5,0,0.9,0.4,0.9,0.9C14.8,35.1,14.8,38.1,14.8,38.1z"/>
	</g>
	<g>
		<path class="st1" d="M27.4,38.1h-4.4c-0.5,0-0.8-0.4-0.8-0.8s0.4-0.8,0.8-0.8h4.4c0.5,0,0.8,0.4,0.8,0.8S27.9,38.1,27.4,38.1z"/>
	</g>
	<g>
		<path class="st1" d="M25.7,40.6h-2.3c-0.5,0-0.8-0.4-0.8-0.8s0.4-0.8,0.8-0.8h2.3c0.5,0,0.8,0.4,0.8,0.8
			C26.5,40.2,26.1,40.6,25.7,40.6z"/>
	</g>
	<path class="st1" d="M32.8,23.2h-5.9c-0.4,0-0.8-0.3-0.8-0.8v-5.1c0-0.4,0.3-0.8,0.8-0.8h5.9c0.4,0,0.8,0.3,0.8,0.8v5.1
		C33.5,22.8,33.2,23.2,32.8,23.2z M27.6,21.7H32V18h-4.4C27.6,18,27.6,21.7,27.6,21.7z"/>
	<path class="st1" d="M56.8,32.4c-2-6.5-7.8-10.8-14.6-10.8H17.8c-1.6,0-3.2,0.3-4.7,0.7c-0.1,0.4,0,1,0.4,1.6
		c1.4-0.5,2.8-0.7,4.3-0.7h24.3c6,0,11.3,4,13,9.6c3.5,11.5,4.1,19,1.7,20.1c-3.3,1.5-6.7-1.3-10.3-4.3c-0.7-0.6-1.5-1.2-2.3-1.8
		c0.2-0.6,0.3-1.2,0.3-1.8c0-3.5-2.9-6.4-6.4-6.4c-2.9,0-5.4,2-6.2,4.7H22c-0.1,0-0.2,0-0.2,0c-3,0.9-5.7,3.2-8.4,5.4
		c-3.6,3-7,5.8-10.3,4.3c-2.5-1.1-1.9-8.6,1.7-20.1c0.6-1.9,1.5-3.5,2.7-4.9c0-1.1-0.8-1.2-1.2-1.1c-1.4,1.6-2.5,3.5-3.1,5.6
		c-6,19.8-2,21.5-0.7,22.1C3.4,54.9,4.2,55,5.1,55c3.3,0,6.4-2.6,9.4-5.1c2.5-2,5-4.2,7.7-5h9.6c0,0,0,0,0,0.1
		c0,3.5,2.9,6.4,6.4,6.4c2.3,0,4.3-1.2,5.4-3c0.6,0.5,1.3,1,1.9,1.6c3.8,3.2,7.7,6.5,12,4.6C58.8,53.9,62.8,52.1,56.8,32.4z
		 M38.2,49.5c-2.5,0-4.5-2-4.5-4.5c0-2.5,2-4.5,4.5-4.5s4.5,2,4.5,4.5C42.7,47.5,40.7,49.5,38.2,49.5z"/>
	<path class="st1" d="M32.6,4.9H17.5c-2.4,0-4.3,1.9-4.3,4.3s1.9,4.3,4.3,4.3h8.2c1.5,0,2.7,1.2,2.7,2.7V17c0,0.5,0.4,0.8,0.8,0.8
		S30,17.4,30,17v-0.7c0-2.4-1.9-4.3-4.3-4.3h-8.2c-1.5,0-2.7-1.2-2.7-2.7s1.2-2.7,2.7-2.7h15c0.1-0.3,0.2-0.6,0.2-1
		C32.8,5.4,32.7,5.2,32.6,4.9z"/>
</g>
</svg>
