<?xml version="1.0" encoding="utf-8"?>
<!-- Generator: Adobe Illustrator 26.0.0, SVG Export Plug-In . SVG Version: 6.00 Build 0)  -->
<svg version="1.1" id="Layer_1" xmlns="http://www.w3.org/2000/svg" xmlns:xlink="http://www.w3.org/1999/xlink" x="0px" y="0px"
	 viewBox="0 0 60 60" style="enable-background:new 0 0 60 60;" xml:space="preserve">
<style type="text/css">
	.st0{fill:#51B74A;}
	.st1{fill:#131F35;}
</style>
<g>
	
		<rect x="25.7" y="21.2" transform="matrix(6.733194e-03 -1 1 6.733194e-03 -21.1895 74.8369)" class="st0" width="2.7" height="53.8"/>
	<g>
		<polyline class="st0" points="53.5,43.7 59.5,43.7 59.6,39.2 56.6,39.2 57.2,10.9 54.2,10.9 54.1,16.2 		"/>
		<path class="st1" d="M59.5,44.1l-6,0l0-0.9l5.6,0l0-3.6l-2.6,0c-0.2,0-0.4-0.2-0.4-0.4l0.6-27.8l-2.1,0l0,4.8l-0.9,0l0-5.3
			c0-0.2,0.2-0.4,0.4-0.4l3,0c0.2,0,0.4,0.2,0.4,0.4L57,38.8l2.6,0c0.2,0,0.4,0.2,0.4,0.4l0,4.5C60,43.9,59.8,44.1,59.5,44.1z"/>
	</g>
	<path class="st1" d="M8.9,47.2l-6.5,0c-1.3,0-2.3-1.1-2.3-2.4l0.6-27.3c0-1.3,1.1-2.3,2.4-2.3l26.8,0.2c0.4,0,0.7,0.3,0.6,0.7
		c0,0.4-0.3,0.7-0.7,0.6L3,16.5c-0.6,0-1,0.5-1,1L1.3,44.9c0,0.6,0.5,1,1,1l6.5,0c0.4,0,0.7,0.3,0.6,0.7C9.5,47,9.2,47.2,8.9,47.2z"
		/>
	<path class="st1" d="M51.7,47.5l-32.1-0.2c-0.4,0-0.7-0.3-0.6-0.7c0-0.4,0.3-0.7,0.7-0.6l32.1,0.2c0.6,0,1.2-0.5,1.2-1.1l0.6-28.3
		l-18.6-0.1c-0.4,0-0.7-0.3-0.6-0.7c0-0.4,0.3-0.7,0.7-0.6l19.3,0.1c0.4,0,0.7,0.3,0.6,0.7l-0.6,28.9C54.2,46.4,53.1,47.5,51.7,47.5
		z"/>
	<g>
		<path class="st1" d="M13.7,39.1c-4.6,0-8.4-3.8-8.3-8.5s3.8-8.4,8.5-8.3s8.4,3.8,8.3,8.5S18.3,39.2,13.7,39.1z M13.8,23.6
			c-3.9,0-7.1,3.1-7.2,7c0,3.9,3.1,7.1,7,7.2c3.9,0,7.1-3.1,7.2-7C20.9,26.9,17.7,23.6,13.8,23.6z"/>
		<g>
			<path class="st1" d="M13.7,39.1c-0.4,0-0.7-0.3-0.6-0.7l0.1-7.8c0-0.4,0.3-0.7,0.7-0.6c0.4,0,0.7,0.3,0.6,0.7l-0.1,7.8
				C14.3,38.8,14,39.1,13.7,39.1z"/>
			<path class="st1" d="M19.8,36.2c-0.1,0-0.3,0-0.4-0.2l-6-4.9C13,31,13,30.6,13.2,30.3c0.2-0.3,0.6-0.3,0.9-0.1l6,4.9
				c0.3,0.2,0.3,0.6,0.1,0.9C20.1,36.2,20,36.3,19.8,36.2z"/>
			<path class="st1" d="M13.7,31.4c-0.3,0-0.6-0.2-0.6-0.5c-0.1-0.4,0.1-0.7,0.5-0.8l7.6-1.7c0.4-0.1,0.7,0.1,0.8,0.5
				c0.1,0.4-0.1,0.7-0.5,0.8l-7.6,1.7C13.8,31.4,13.8,31.4,13.7,31.4z"/>
			<path class="st1" d="M13.7,31.4c-0.1,0-0.2,0-0.3-0.1c-0.3-0.2-0.5-0.6-0.3-0.9l3.4-7c0.2-0.3,0.6-0.5,0.9-0.3
				c0.3,0.2,0.5,0.6,0.3,0.9l-3.4,7C14.2,31.2,14,31.4,13.7,31.4z"/>
			<path class="st1" d="M13.7,31.4c-0.2,0-0.5-0.1-0.6-0.4l-3.3-7c-0.1-0.3,0-0.7,0.3-0.9c0.3-0.2,0.7,0,0.9,0.3l3.3,7
				c0.1,0.3,0,0.7-0.3,0.9C13.9,31.4,13.8,31.4,13.7,31.4z"/>
			<path class="st1" d="M13.7,31.4c0,0-0.1,0-0.1,0L6,29.6c-0.3-0.1-0.6-0.4-0.5-0.8s0.4-0.6,0.8-0.5l7.5,1.8
				c0.3,0.1,0.6,0.4,0.5,0.8C14.3,31.2,14,31.4,13.7,31.4z"/>
			<path class="st1" d="M7.6,36.2c-0.2,0-0.4-0.1-0.5-0.3c-0.2-0.3-0.2-0.7,0.1-0.9l6.1-4.8c0.3-0.2,0.7-0.2,0.9,0.1
				c0.2,0.3,0.2,0.7-0.1,0.9L8,36C7.9,36.1,7.8,36.2,7.6,36.2z"/>
		</g>
		<g>
			<circle class="st0" cx="13.7" cy="30.7" r="3.1"/>
			<path class="st1" d="M13.7,34.2c-1.9,0-3.5-1.6-3.5-3.5c0-1.9,1.6-3.5,3.5-3.5c1.9,0,3.5,1.6,3.5,3.5
				C17.2,32.7,15.7,34.3,13.7,34.2z M13.8,28.1c-1.5,0-2.7,1.2-2.7,2.6c0,1.5,1.2,2.7,2.6,2.7s2.7-1.2,2.7-2.6
				C16.4,29.3,15.2,28.1,13.8,28.1z"/>
		</g>
	</g>
	<g>
		<path class="st1" d="M39,39.7c-4.6,0-8.4-3.8-8.3-8.5c0-4.6,3.8-8.4,8.5-8.3c1.3,0,2.5,0.3,3.6,0.9c0.3,0.2,0.5,0.6,0.3,0.9
			c-0.2,0.3-0.6,0.5-0.9,0.3c-1-0.5-2-0.7-3.1-0.7c-3.9,0-7.1,3.1-7.2,7c0,3.9,3.1,7.1,7,7.2c3.9,0,7.1-3.1,7.2-7
			c0-0.5-0.1-1.1-0.2-1.6c-0.1-0.4,0.1-0.7,0.5-0.8c0.3-0.1,0.7,0.1,0.8,0.5c0.1,0.6,0.2,1.2,0.2,1.9C47.4,36,43.6,39.7,39,39.7z"/>
		<g>
			<path class="st1" d="M39,39.7c-0.4,0-0.7-0.3-0.6-0.7l0.1-7.8c0-0.4,0.3-0.7,0.7-0.6c0.4,0,0.7,0.3,0.6,0.7l-0.1,7.8
				C39.6,39.4,39.3,39.7,39,39.7z"/>
			<path class="st1" d="M45,36.8c-0.1,0-0.3,0-0.4-0.2l-6-4.9c-0.3-0.2-0.3-0.6-0.1-0.9c0.2-0.3,0.6-0.3,0.9-0.1l6,4.9
				c0.3,0.2,0.3,0.6,0.1,0.9C45.4,36.7,45.2,36.8,45,36.8z"/>
			<path class="st1" d="M39,31.9c-0.3,0-0.6-0.2-0.6-0.5c-0.1-0.4,0.1-0.7,0.5-0.8l7.6-1.7c0.4-0.1,0.7,0.1,0.8,0.5
				c0.1,0.4-0.1,0.7-0.5,0.8l-7.6,1.7C39.1,31.9,39.1,31.9,39,31.9z"/>
			<path class="st1" d="M39,31.9c-0.1,0-0.2,0-0.3-0.1c-0.3-0.2-0.5-0.6-0.3-0.9l3.4-7c0.2-0.3,0.6-0.5,0.9-0.3
				c0.3,0.2,0.5,0.6,0.3,0.9l-3.4,7C39.5,31.8,39.3,32,39,31.9z"/>
			<path class="st1" d="M39,31.9c-0.2,0-0.5-0.1-0.6-0.4l-3.3-7c-0.1-0.3,0-0.7,0.3-0.9c0.3-0.2,0.7,0,0.9,0.3l3.3,7
				c0.1,0.3,0,0.7-0.3,0.9C39.2,31.9,39.1,31.9,39,31.9z"/>
			<path class="st1" d="M39,31.9c0,0-0.1,0-0.1,0l-7.5-1.8c-0.3-0.1-0.6-0.4-0.5-0.8s0.4-0.6,0.8-0.5l7.5,1.8
				c0.3,0.1,0.6,0.4,0.5,0.8C39.6,31.7,39.3,32,39,31.9z"/>
			<path class="st1" d="M32.9,36.7c-0.2,0-0.4-0.1-0.5-0.3c-0.2-0.3-0.2-0.7,0.1-0.9l6.1-4.8c0.3-0.2,0.7-0.2,0.9,0.1
				c0.2,0.3,0.2,0.7-0.1,0.9l-6.1,4.8C33.2,36.7,33.1,36.7,32.9,36.7z"/>
		</g>
		<g>
			<circle class="st0" cx="39" cy="31.3" r="3.1"/>
			<path class="st1" d="M39,34.8c-1.9,0-3.5-1.6-3.5-3.5c0-1.9,1.6-3.5,3.5-3.5c1.9,0,3.5,1.6,3.5,3.5C42.5,33.3,40.9,34.8,39,34.8z
				 M39,28.6c-1.5,0-2.7,1.2-2.7,2.6c0,1.5,1.2,2.7,2.6,2.7c1.5,0,2.7-1.2,2.7-2.6C41.7,29.8,40.5,28.7,39,28.6z"/>
		</g>
	</g>
	<path class="st1" d="M24.8,31.4c-0.4,0-0.7-0.3-0.6-0.7l0-3.8c0-0.4,0.3-0.7,0.7-0.6c0.4,0,0.7,0.3,0.6,0.7l0,3.8
		C25.5,31.1,25.2,31.4,24.8,31.4z"/>
	<path class="st1" d="M24.7,42.5c-0.4,0-0.7-0.3-0.6-0.7l0.1-7.6c0-0.4,0.3-0.7,0.7-0.6c0.4,0,0.7,0.3,0.6,0.7l-0.1,7.6
		C25.4,42.3,25.1,42.6,24.7,42.5z"/>
	<path class="st1" d="M19.9,26c-0.2,0-0.3-0.1-0.5-0.2c-0.3-0.3-0.3-0.7,0-0.9l5.4-9.2c0.3-0.3,0.7-0.3,0.9,0c0.3,0.3,0.3,0.7,0,0.9
		l-5.4,9.2C20.2,26,20.1,26,19.9,26z"/>
	<path class="st1" d="M28.2,47.3c-0.2,0-0.3-0.1-0.5-0.2c-0.3-0.3-0.3-0.7,0-0.9l8.5-7.9c0.3-0.3,0.7-0.3,0.9,0
		c0.3,0.3,0.3,0.7,0,0.9l-8.5,7.9C28.5,47.3,28.4,47.3,28.2,47.3z"/>
	<circle class="st1" cx="3.6" cy="18.4" r="0.8"/>
	<circle class="st1" cx="51.4" cy="18.7" r="0.8"/>
	<circle class="st1" cx="3.1" cy="44" r="0.8"/>
	<circle class="st1" cx="50.8" cy="44.4" r="0.8"/>
	<path class="st1" d="M34.6,16.7c-0.4,0-0.7-0.3-0.6-0.7l0-3.5l-3.3,0l0,3.5c0,0.4-0.3,0.7-0.7,0.6s-0.7-0.3-0.6-0.7l0-4.1
		c0-0.4,0.3-0.7,0.7-0.6l4.6,0c0.4,0,0.7,0.3,0.6,0.7l0,4.1C35.3,16.4,35,16.7,34.6,16.7z"/>
	<path class="st1" d="M49.1,16.8c-0.4,0-0.7-0.3-0.6-0.7l0-3.5l-2.1,0c-0.4,0-0.7-0.3-0.6-0.7c0-0.4,0.3-0.7,0.7-0.6l2.8,0
		c0.4,0,0.7,0.3,0.6,0.7l0,4.1C49.7,16.5,49.4,16.8,49.1,16.8z"/>
	<path class="st1" d="M38.7,16.7c-0.4,0-0.7-0.3-0.6-0.7l0-4.1c0-0.4,0.3-0.7,0.7-0.6l3.3,0c0.4,0,0.7,0.3,0.6,0.7
		c0,0.4-0.3,0.7-0.7,0.6l-2.7,0l0,3.5C39.3,16.4,39,16.7,38.7,16.7z"/>
</g>
</svg>
