<?xml version="1.0" encoding="utf-8"?>
<!-- Generator: Adobe Illustrator 26.0.0, SVG Export Plug-In . SVG Version: 6.00 Build 0)  -->
<svg version="1.1" id="Layer_1" xmlns="http://www.w3.org/2000/svg" xmlns:xlink="http://www.w3.org/1999/xlink" x="0px" y="0px"
	 viewBox="0 0 60 60" style="enable-background:new 0 0 60 60;" xml:space="preserve">
<style type="text/css">
	.st0{fill:#131F35;}
	.st1{fill:#50B848;}
</style>
<path class="st0" d="M52.5,39.1H7.2c-0.8,0-1.4-0.7-1.4-1.5V10.3C5.8,7.9,7.7,6,10.1,6h31.8c0.4,0,0.7,0.3,0.7,0.7s-0.3,0.7-0.7,0.7
	H10.1c-1.6,0-2.8,1.3-2.8,2.9v27.4l45.2,0l0-27.4c0-1.6-1.3-2.9-2.8-2.9h-3.3c-0.4,0-0.7-0.3-0.7-0.7S46,6,46.4,6h3.3
	c2.4,0,4.3,1.9,4.3,4.3v27.4C54,38.5,53.3,39.1,52.5,39.1z"/>
<path class="st0" d="M57.9,52.1H2.5c-0.8,0-1.5-0.4-1.8-1s-0.4-1.5,0-2.1l6-10.8c0.1-0.2,0.4-0.4,0.6-0.4h45.3
	c0.3,0,0.5,0.1,0.6,0.3l6.5,10.8c0.4,0.7,0.4,1.5,0,2.2C59.3,51.7,58.6,52.1,57.9,52.1z M7.7,39.1L1.9,49.6c-0.2,0.3,0,0.6,0,0.7
	c0.1,0.1,0.2,0.3,0.6,0.3h55.4c0.3,0,0.5-0.2,0.6-0.3c0.1-0.1,0.2-0.4,0-0.7l-6.3-10.4H7.7z"/>
<path class="st0" d="M47.6,43.7H28.4c-0.4,0-0.7-0.3-0.7-0.7s0.3-0.7,0.7-0.7h19.2c0.4,0,0.7,0.3,0.7,0.7S48,43.7,47.6,43.7z"/>
<path class="st0" d="M15.3,43.7H12c-0.4,0-0.7-0.3-0.7-0.7s0.3-0.7,0.7-0.7h3.2c0.4,0,0.7,0.3,0.7,0.7S15.7,43.7,15.3,43.7z"/>
<path class="st0" d="M24.1,43.7h-3.2c-0.4,0-0.7-0.3-0.7-0.7s0.3-0.7,0.7-0.7h3.2c0.4,0,0.7,0.3,0.7,0.7S24.5,43.7,24.1,43.7z"/>
<path class="st0" d="M36,47.7h-28c-0.4,0-0.7-0.3-0.7-0.7s0.3-0.7,0.7-0.7h28c0.4,0,0.7,0.3,0.7,0.7S36.4,47.7,36,47.7z"/>
<path class="st0" d="M43.7,47.7h-3.2c-0.4,0-0.7-0.3-0.7-0.7s0.3-0.7,0.7-0.7h3.2c0.4,0,0.7,0.3,0.7,0.7S44.1,47.7,43.7,47.7z"/>
<path class="st0" d="M52,47.7h-3.2c-0.4,0-0.7-0.3-0.7-0.7s0.3-0.7,0.7-0.7H52c0.4,0,0.7,0.3,0.7,0.7S52.4,47.7,52,47.7z"/>
<rect x="28.4" y="10.5" class="st1" width="20.5" height="23.5"/>
<rect y="52.1" class="st1" width="60" height="1.8"/>
<rect x="19.4" y="11.2" class="st1" width="2.8" height="23.1"/>
<path class="st0" d="M26,35.7h-7.4c-0.4,0-0.7-0.3-0.7-0.7s0.3-0.7,0.7-0.7H26c0.4,0,0.7,0.3,0.7,0.7S26.4,35.7,26,35.7z"/>
<path class="st0" d="M49.2,35.7H29.1c-0.4,0-0.7-0.3-0.7-0.7s0.3-0.7,0.7-0.7h19.4v-23H11.7v23h3.7c0.4,0,0.7,0.3,0.7,0.7
	s-0.3,0.7-0.7,0.7H11c-0.4,0-0.7-0.3-0.7-0.7V10.5c0-0.4,0.3-0.7,0.7-0.7h38.2c0.4,0,0.7,0.3,0.7,0.7v24.4
	C49.9,35.4,49.6,35.7,49.2,35.7z"/>
</svg>
