<?xml version="1.0" encoding="utf-8"?>
<!-- Generator: Adobe Illustrator 26.0.0, SVG Export Plug-In . SVG Version: 6.00 Build 0)  -->
<svg version="1.1" id="Layer_1" xmlns="http://www.w3.org/2000/svg" xmlns:xlink="http://www.w3.org/1999/xlink" x="0px" y="0px"
	 viewBox="0 0 60 60" style="enable-background:new 0 0 60 60;" xml:space="preserve">
<style type="text/css">
	.st0{fill:#50B848;}
	.st1{fill:#131F35;}
</style>
<rect x="28.1" y="42.2" class="st0" width="8.7" height="10.4"/>
<rect x="8.2" y="57.7" class="st0" width="43.2" height="2.3"/>
<rect x="28.1" y="6" class="st0" width="25.5" height="31.7"/>
<rect x="17" y="6.9" class="st0" width="3.4" height="30"/>
<path class="st1" d="M25.1,38.7h-9.2c-0.5,0-0.9-0.4-0.9-0.9s0.4-0.9,0.9-0.9h9.2c0.5,0,0.9,0.4,0.9,0.9S25.6,38.7,25.1,38.7z"/>
<path class="st1" d="M54,38.7H29c-0.5,0-0.9-0.4-0.9-0.9s0.4-0.9,0.9-0.9h24.1V6.9H7.4v29.9H12c0.5,0,0.9,0.4,0.9,0.9
	s-0.4,0.9-0.9,0.9H6.5c-0.5,0-0.9-0.4-0.9-0.9V6c0-0.5,0.4-0.9,0.9-0.9H54C54.5,5.1,55,5.5,55,6v31.7C55,38.2,54.5,38.7,54,38.7z"/>
<path class="st1" d="M54.7,0.2h-4.1c-0.5,0-0.9,0.4-0.9,0.9S50.1,2,50.6,2h4.1c1.9,0,3.5,1.7,3.5,3.8v31.7c0,2.1-1.7,3.9-3.7,3.9
	H37.8H22.2H5.5c-2,0-3.7-1.7-3.7-3.9V5.7C1.8,3.7,3.4,2,5.3,2h39.6c0.5,0,0.9-0.4,0.9-0.9s-0.4-0.9-0.9-0.9H5.3C2.4,0.2,0,2.7,0,5.7
	v31.7c0,3.2,2.5,5.7,5.5,5.7h16.7v8.6h-7.7c-0.2,0-0.5,0.1-0.6,0.3l-5,5c-0.3,0.3-0.3,0.7-0.2,1s0.5,0.6,0.8,0.6h40.9
	c0.4,0,0.7-0.2,0.8-0.6s0.1-0.7-0.2-1l-5-5c-0.2-0.2-0.4-0.3-0.7-0.3h-7.7v-8.7h16.7c3,0,5.5-2.6,5.5-5.7V5.7
	C60,2.7,57.6,0.2,54.7,0.2z M45.1,53.6l3.2,3.2H11.8l3.1-3.2h7.3h0.9h13.8h0.9H45.1z M36,51.8H24v-8.6h12L36,51.8L36,51.8z"/>
</svg>
