<?xml version="1.0" encoding="utf-8"?>
<!-- Generator: Adobe Illustrator 26.0.0, SVG Export Plug-In . SVG Version: 6.00 Build 0)  -->
<svg version="1.1" id="Layer_1" xmlns="http://www.w3.org/2000/svg" xmlns:xlink="http://www.w3.org/1999/xlink" x="0px" y="0px"
	 viewBox="0 0 60 60" style="enable-background:new 0 0 60 60;" xml:space="preserve">
<style type="text/css">
	.st0{fill:#51B748;}
	.st1{fill:#131F35;}
	.st2{fill:none;}
</style>
<path class="st0" d="M9.7,50.5H4.4c-1.9,0-3.5-1.6-3.5-3.5V23.9c0-2.1,1.7-3.9,3.9-3.9h4.9V50.5z"/>
<path class="st1" d="M17.7,27.2H6.4c-0.5,0-0.9-0.4-0.9-0.9s0.4-0.9,0.9-0.9h11.3c0.5,0,0.9,0.4,0.9,0.9
	C18.6,26.8,18.2,27.2,17.7,27.2z"/>
<rect x="33.7" y="40.3" class="st0" width="8.6" height="17.7"/>
<g>
	<line class="st2" x1="19.9" y1="44.9" x2="38.8" y2="44.9"/>
	<path class="st1" d="M38.8,45.8H19.9c-0.5,0-0.9-0.4-0.9-0.9s0.4-0.9,0.9-0.9h18.9c0.5,0,0.9,0.4,0.9,0.9S39.3,45.8,38.8,45.8z"/>
</g>
<g>
	<line class="st2" x1="19.9" y1="50" x2="28.7" y2="50"/>
	<path class="st1" d="M28.7,50.9h-8.9c-0.5,0-0.9-0.4-0.9-0.9s0.4-0.9,0.9-0.9h8.9c0.5,0,0.9,0.4,0.9,0.9S29.2,50.9,28.7,50.9z"/>
</g>
<g>
	<line class="st2" x1="19.9" y1="54.8" x2="38.8" y2="54.8"/>
	<path class="st1" d="M38.8,55.7H19.9c-0.5,0-0.9-0.4-0.9-0.9s0.4-0.9,0.9-0.9h18.9c0.5,0,0.9,0.4,0.9,0.9S39.3,55.7,38.8,55.7z"/>
</g>
<circle class="st1" cx="41" cy="26.2" r="2.3"/>
<circle class="st1" cx="47" cy="26.2" r="2.3"/>
<circle class="st1" cx="53" cy="26.2" r="2.3"/>
<path class="st1" d="M59.1,29.4c0.5,0,0.9-0.4,0.9-0.9v-3.9c0-3-2.5-5.5-5.5-5.5h-3.4V6.8c0-0.5-0.4-0.9-0.9-0.9h-4.6v-5
	c0-0.5-0.4-0.9-0.9-0.9h-18c-0.5,0-0.9,0.4-0.9,0.9s0.4,0.9,0.9,0.9h17v17.2H16.9V1.9h3.6c0.5,0,0.9-0.4,0.9-0.9S21,0,20.5,0h-4.5
	C15.4,0,15,0.4,15,0.9v5H9.7c-0.5,0-0.9,0.4-0.9,0.9V19H5.5c-3,0-5.5,2.5-5.5,5.5v21.4c0,3,2.5,5.5,5.5,5.5H15v7.7
	c0,0.5,0.4,0.9,0.9,0.9h27.4c0.5,0,0.9-0.4,0.9-0.9v-7.7h10.2c3,0,5.5-2.5,5.5-5.5v-4c0-0.5-0.4-0.9-0.9-0.9s-0.9,0.4-0.9,0.9v4
	c0,2-1.6,3.6-3.6,3.6h-3.4V39.3c0-0.5-0.4-0.9-0.9-0.9h-6.8H15.9H9.7c-0.5,0-0.9,0.4-0.9,0.9v2.5c0,0.5,0.4,0.9,0.9,0.9
	s0.9-0.4,0.9-0.9v-1.6H15v9.3h-4.4v-4.1c0-0.5-0.4-0.9-0.9-0.9S8.7,45,8.7,45.5v4.1H5.5c-2,0-3.6-1.6-3.6-3.6V24.5
	c0-2,1.6-3.6,3.6-3.6h10.4h28.7h9.8c2,0,3.6,1.6,3.6,3.6v3.9C58.1,29,58.5,29.4,59.1,29.4z M49.2,49.6h-5v-9.3h5V49.6z M42.4,40.2
	v18H16.9v-18H42.4z M10.6,7.8H15V19h-4.4V7.8z M45.6,7.8h3.6V19h-3.6V7.8z"/>
<path class="st1" d="M59.1,38.5c-0.5,0-0.9-0.4-0.9-0.9v-5.4c0-0.5,0.4-0.9,0.9-0.9s0.9,0.4,0.9,0.9v5.4C60,38,59.6,38.5,59.1,38.5z
	"/>
</svg>
