<?xml version="1.0" encoding="utf-8"?>
<!-- Generator: Adobe Illustrator 26.0.0, SVG Export Plug-In . SVG Version: 6.00 Build 0)  -->
<svg version="1.1" id="Layer_1" xmlns="http://www.w3.org/2000/svg" xmlns:xlink="http://www.w3.org/1999/xlink" x="0px" y="0px"
	 viewBox="0 0 60 60" style="enable-background:new 0 0 60 60;" xml:space="preserve">
<style type="text/css">
	.st0{fill:#50B848;}
	.st1{fill:#131F35;}
</style>
<path class="st0" d="M15.1,40.8V19.6c0-2.3,1.8-4.1,4.1-4.1h10.5V7.9H13.9c-3.2,0-5.8,2.6-5.8,5.8v31.8c0,3.2,2.6,5.8,5.8,5.8h15.9
	v-6.6H19.2C17,44.9,15.1,43,15.1,40.8z"/>
<path class="st1" d="M40.3,45.8H19.2c-2.8,0-5.1-2.3-5.1-5V19.6c0-2.8,2.3-5.1,5.1-5.1h21.1c2.8,0,5,2.3,5,5.1v21.1
	C45.4,43.5,43.1,45.8,40.3,45.8z M19.2,16.5c-1.8,0-3.2,1.4-3.2,3.2v21.1c0,1.8,1.4,3.2,3.2,3.2h21.1c1.8,0,3.2-1.4,3.2-3.2V19.6
	c0-1.8-1.4-3.2-3.2-3.2H19.2z"/>
<g>
	<path class="st1" d="M21,25.9c-0.5,0-0.9-0.4-0.9-0.9v-5c0-0.5,0.4-0.9,0.9-0.9S22,19.5,22,20v5C22,25.4,21.6,25.9,21,25.9z"/>
	<path class="st1" d="M21,40.3c-0.5,0-0.9-0.4-0.9-0.9v-5c0-0.5,0.4-0.9,0.9-0.9s0.9,0.4,0.9,0.9v5C22,39.9,21.6,40.3,21,40.3z"/>
</g>
<path class="st1" d="M58.9,23.6c0.5,0,0.9-0.4,0.9-0.9s-0.4-0.9-0.9-0.9h-6.4v-5.2h6.4c0.5,0,0.9-0.4,0.9-0.9s-0.4-0.9-0.9-0.9h-6.4
	v-0.4c0-3.7-3-6.8-6.8-6.8h-0.9V0.9c0-0.5-0.4-0.9-0.9-0.9C43.4,0,43,0.4,43,0.9v6.6h-5.2V0.9c0-0.5-0.4-0.9-0.9-0.9
	c-0.5,0-0.9,0.4-0.9,0.9v7.1c0,0.1,0,0.1,0,0.2c0,0.1,0,0.1,0,0.2c0,0.5,0.4,0.9,0.9,0.9h8.9c2.7,0,4.9,2.2,4.9,4.9v31.9
	c0,2.7-2.2,4.9-4.9,4.9H13.9C11.2,51,9,48.8,9,46.1V14.3c0-2.7,2.2-4.9,4.9-4.9h15.9c0.5,0,0.9-0.4,0.9-0.9c0-0.1,0-0.1,0-0.2
	c0-0.1,0-0.1,0-0.2V0.9c0-0.5-0.4-0.9-0.9-0.9s-0.9,0.4-0.9,0.9v6.6h-5.2V0.9c0-0.5-0.4-0.9-0.9-0.9s-0.9,0.4-0.9,0.9v6.6h-5.2V0.9
	c0-0.5-0.4-0.9-0.9-0.9s-0.9,0.4-0.9,0.9v6.6h-0.9c-3.7,0-6.8,3-6.8,6.8v0.4H0.9c-0.5,0-0.9,0.4-0.9,0.9s0.4,0.9,0.9,0.9h6.2v5.2
	H0.9c-0.5,0-0.9,0.4-0.9,0.9c0,0.5,0.4,0.9,0.9,0.9h6.2v5.2H0.9c-0.5,0-0.9,0.4-0.9,0.9s0.4,0.9,0.9,0.9h6.2v5.2H0.9
	c-0.5,0-0.9,0.4-0.9,0.9c0,0.5,0.4,0.9,0.9,0.9h6.2v5.2H0.9c-0.5,0-0.9,0.4-0.9,0.9s0.4,0.9,0.9,0.9h6.2v1.4c0,3.7,3,6.8,6.8,6.8
	h0.9v6.2c0,0.5,0.4,0.9,0.9,0.9c0.5,0,0.9-0.4,0.9-0.9v-6.2h5.2v6.2c0,0.5,0.4,0.9,0.9,0.9s0.9-0.4,0.9-0.9v-6.2h5.2v6.2
	c0,0.5,0.4,0.9,0.9,0.9s0.9-0.4,0.9-0.9v-6.2h5.2v6.2c0,0.5,0.4,0.9,0.9,0.9c0.5,0,0.9-0.4,0.9-0.9v-6.2H43v6.2
	c0,0.5,0.4,0.9,0.9,0.9c0.5,0,0.9-0.4,0.9-0.9v-6.2h0.9c3.7,0,6.8-3,6.8-6.8v-1.4h6.4c0.5,0,0.9-0.4,0.9-0.9c0-0.5-0.4-0.9-0.9-0.9
	h-6.4v-5.2h6.4c0.5,0,0.9-0.4,0.9-0.9c0-0.5-0.4-0.9-0.9-0.9h-6.4v-5.2h6.4c0.5,0,0.9-0.4,0.9-0.9s-0.4-0.9-0.9-0.9h-6.4v-5.2
	L58.9,23.6L58.9,23.6z"/>
</svg>
