<?xml version="1.0" encoding="utf-8"?>
<!-- Generator: Adobe Illustrator 26.0.0, SVG Export Plug-In . SVG Version: 6.00 Build 0)  -->
<svg version="1.1" id="Layer_1" xmlns="http://www.w3.org/2000/svg" xmlns:xlink="http://www.w3.org/1999/xlink" x="0px" y="0px"
	 viewBox="0 0 60 60" style="enable-background:new 0 0 60 60;" xml:space="preserve">
<style type="text/css">
	.st0{fill:#50B848;}
	.st1{fill:#131F35;}
	.st2{fill:#FFFFFF;}
	.st3{fill:none;}
</style>
<g>
	<rect x="45.6" y="11.2" class="st0" width="3.4" height="38"/>
	<path class="st1" d="M54.4,54.6H5.6c-3,0-5.5-2.6-5.5-5.7V11c0-3.1,2.4-5.6,5.3-5.6h39.5c0.5,0,0.9,0.4,0.9,0.9s-0.4,0.9-0.9,0.9
		H5.4c-1.9,0-3.5,1.7-3.5,3.7v38c0,2.1,1.7,3.9,3.7,3.9h48.9c2,0,3.7-1.7,3.7-3.9V11c0-2.1-1.6-3.7-3.5-3.7h-4.1
		c-0.5,0-0.9-0.4-0.9-0.9s0.4-0.9,0.9-0.9h4.1c2.9,0,5.3,2.5,5.3,5.6v38C60,52.1,57.5,54.6,54.4,54.6z"/>
	<path class="st1" d="M25.1,50.1H16c-0.5,0-0.9-0.4-0.9-0.9s0.4-0.9,0.9-0.9h9.2c0.5,0,0.9,0.4,0.9,0.9S25.7,50.1,25.1,50.1z"/>
	<path class="st1" d="M54,50.1H29c-0.5,0-0.9-0.4-0.9-0.9s0.4-0.9,0.9-0.9h24.1V12.2H7.4v36.1H12c0.5,0,0.9,0.4,0.9,0.9
		s-0.4,0.9-0.9,0.9H6.5c-0.5,0-0.9-0.4-0.9-0.9v-38c0-0.5,0.4-0.9,0.9-0.9H54c0.5,0,0.9,0.4,0.9,0.9v38C54.9,49.7,54.5,50.1,54,50.1
		z"/>
	<path class="st0" d="M26.2,25.6c0-0.2,0.1-0.4,0.2-0.5C26.3,25.3,26.3,25.4,26.2,25.6z"/>
	<path class="st0" d="M26.9,28.5C26.9,28.5,26.9,28.5,26.9,28.5C26.9,28.5,26.9,28.5,26.9,28.5z"/>
	<path class="st0" d="M26.4,27.6c-0.1-0.2-0.1-0.4-0.2-0.5C26.3,27.2,26.3,27.4,26.4,27.6z"/>
	<path class="st0" d="M26.5,27.9c0,0,0.1,0.1,0.1,0.1c0-0.1-0.1-0.2-0.1-0.2C26.5,27.8,26.5,27.9,26.5,27.9z"/>
	<path class="st0" d="M26.2,25.7c-0.1,0.5-0.1,0.9,0,1.4c0-0.2-0.1-0.5-0.1-0.7S26.2,25.9,26.2,25.7z"/>
	<path class="st2" d="M26.5,27.8c0,0,0-0.1-0.1-0.2C26.4,27.7,26.4,27.7,26.5,27.8z"/>
	<path class="st2" d="M26.9,28.5c-0.1-0.1-0.2-0.3-0.3-0.4C26.7,28.2,26.8,28.3,26.9,28.5z"/>
	<path class="st2" d="M26.9,28.5c0.6,0.8,1.6,1.3,2.7,1.3c0.6,0,1.2-0.2,1.7-0.5c-0.1,0-0.3,0.1-0.4,0.1
		C29.4,30.1,27.9,29.7,26.9,28.5z"/>
	<path class="st2" d="M26.2,27.1C26.2,27,26.2,27,26.2,27.1C26.2,27,26.2,27.1,26.2,27.1z"/>
	<path class="st2" d="M26.2,25.7C26.2,25.7,26.2,25.6,26.2,25.7C26.2,25.6,26.2,25.7,26.2,25.7z"/>
</g>
<g>
	<path class="st1" d="M27.2,22.3c0-0.8,0-1.6,0-2.4c0-0.6,0.2-0.8,0.8-0.8c1,0,2,0,3,0c0.6,0,0.8,0.2,0.8,0.8c0,0.7,0,1.4,0,2.1
		c0,0.3,0.1,0.4,0.3,0.5c0.2,0,0.4,0.1,0.6,0.2c0.6,0.3,0.6,0.3,1.1-0.2c0.4-0.4,0.8-0.8,1.2-1.2s0.7-0.4,1.2,0
		c0.7,0.7,1.4,1.4,2.1,2.1c0.4,0.4,0.4,0.7,0,1.1c-0.5,0.5-1,1-1.5,1.5c-0.2,0.2-0.3,0.4-0.1,0.7c0.1,0.1,0.2,0.3,0.2,0.5
		c0.2,0.6,0.2,0.6,0.9,0.6s1.2,0,1.9,0c0.5,0,0.7,0.2,0.7,0.7c0,1,0,2,0,3.1c0,0.6-0.2,0.8-0.8,0.8c-0.7,0-1.4,0-2.2,0
		c-0.2,0-0.4,0.1-0.4,0.3c-0.1,0.3-0.2,0.6-0.4,0.9c-0.1,0.2-0.1,0.3,0.1,0.5c0.5,0.5,1,1,1.5,1.5c0.4,0.4,0.4,0.7,0,1.1
		c-0.7,0.7-1.4,1.4-2.1,2.1c-0.4,0.4-0.7,0.4-1.1,0c-0.5-0.5-1-1-1.5-1.5c-0.2-0.2-0.3-0.2-0.5-0.1c-0.3,0.2-0.6,0.3-0.9,0.4
		c-0.2,0.1-0.3,0.2-0.3,0.4c0,0.7,0,1.4,0,2.1c0,0.6-0.2,0.8-0.8,0.8c-1,0-2,0-3,0c-0.6,0-0.8-0.2-0.8-0.8c0-0.7,0-1.4,0-2.2
		c0-0.2-0.1-0.3-0.3-0.4c-0.2,0-0.4-0.1-0.6-0.2c-0.6-0.3-0.6-0.3-1.1,0.2c-0.4,0.4-0.8,0.8-1.2,1.2c-0.4,0.4-0.7,0.4-1.1,0
		c-0.7-0.7-1.5-1.4-2.2-2.2c-0.4-0.4-0.4-0.7,0-1.1c0.5-0.5,1-1.1,1.6-1.6c0.2-0.2,0.2-0.3,0.1-0.5c-0.1-0.3-0.3-0.6-0.4-0.9
		c-0.1-0.2-0.2-0.3-0.4-0.3c-0.7,0-1.4,0-2.1,0c-0.7,0-0.9-0.2-0.9-0.9c0-1,0-2,0-3c0-0.6,0.2-0.8,0.8-0.8c0.7,0,1.5,0,2.2,0
		c0.2,0,0.3-0.1,0.4-0.3c0.1-0.3,0.2-0.6,0.4-1c0.1-0.2,0.1-0.3-0.1-0.5c-0.5-0.5-1-1-1.5-1.5c-0.4-0.4-0.4-0.7,0-1.1
		c0.7-0.7,1.4-1.4,2.1-2.1c0.4-0.4,0.7-0.4,1.1,0c0.5,0.5,1.1,1,1.6,1.6c0.1,0.1,0.2,0.2,0.4,0.1C26.4,22.7,26.8,22.5,27.2,22.3z
		 M22,23.9C22,23.9,22,24,22,23.9c0.5,0.6,1.1,1.1,1.6,1.6c0.4,0.4,0.4,0.6,0.1,1c-0.3,0.5-0.5,1.1-0.7,1.6c-0.2,0.6-0.3,0.7-1,0.7
		c-0.7,0-1.5,0-2.2,0c0,0.7,0,1.4,0,2.1c0.8,0,1.5,0,2.2,0c0.6,0,0.7,0.1,0.9,0.7c0.2,0.5,0.4,1.1,0.7,1.6c0.3,0.6,0.3,0.7-0.2,1.2
		c-0.5,0.5-1,1-1.5,1.5c0.5,0.5,1,1,1.5,1.5c0.5-0.5,1.1-1.1,1.6-1.6c0.3-0.3,0.5-0.3,1-0.1c0.6,0.3,1.2,0.5,1.8,0.8
		c0.5,0.2,0.6,0.3,0.6,0.8c0,0.7,0,1.4,0,2.1c0,0.2,0.1,0.3,0.3,0.3c0.5,0,1,0,1.5,0c0.2,0,0.3-0.1,0.3-0.3c0-0.6,0-1.3,0-1.9
		c0-0.6,0.1-0.7,0.7-0.9c0.6-0.2,1.1-0.4,1.6-0.7c0.5-0.2,0.7-0.2,1.1,0.2c0.5,0.5,1.1,1.1,1.5,1.5c0.5-0.5,1-1,1.5-1.5
		c-0.5-0.5-1-1-1.6-1.6c-0.4-0.4-0.4-0.6-0.2-1c0.2-0.5,0.5-1,0.7-1.6c0.2-0.7,0.3-0.8,1.1-0.8c0.7,0,1.4,0,2.1,0c0-0.7,0-1.4,0-2
		c0,0-0.1,0-0.1,0c-0.7,0-1.5,0-2.2,0c-0.5,0-0.7-0.1-0.8-0.6c-0.2-0.6-0.4-1.1-0.7-1.7c-0.3-0.6-0.3-0.7,0.2-1.2
		c0.5-0.5,1-1,1.5-1.5c-0.5-0.5-1-1-1.5-1.5c-0.5,0.5-1.1,1.1-1.6,1.6c-0.3,0.3-0.6,0.3-0.9,0.2c-0.6-0.3-1.3-0.6-1.9-0.8
		c-0.3-0.1-0.5-0.3-0.5-0.7c0-0.3,0-0.6,0-0.9c0-0.5,0-1,0-1.5c-0.7,0-1.4,0-2.1,0c0,0.8,0,1.5,0,2.2c0,0.6-0.1,0.7-0.6,0.9
		c-0.6,0.2-1.1,0.4-1.7,0.7c-0.5,0.2-0.7,0.2-1.1-0.2c-0.5-0.5-1.1-1.1-1.6-1.6C23,23,22.5,23.4,22,23.9z"/>
	<path class="st3" d="M28.5,25.5c-2.2,0.5-3.7,2.5-3.6,4.7c0.1,2.3,1.8,4.2,4.1,4.5c0.9,0.1,1.8,0,2.6-0.5c0.3-0.1,0.4-0.4,0.4-0.7
		c-0.1-0.3-0.3-0.5-0.6-0.5c0,0-0.1,0-0.1,0c-0.5,0.3-1.1,0.5-1.7,0.5c-1.1,0-2.1-0.5-2.7-1.3c0,0,0,0,0,0c-0.1-0.1-0.2-0.3-0.3-0.4
		c0,0-0.1-0.1-0.1-0.1c0,0,0-0.1,0-0.1c0,0,0-0.1-0.1-0.2c-0.1-0.2-0.1-0.4-0.2-0.5c0,0,0,0,0,0c-0.1-0.5-0.1-0.9,0-1.4c0,0,0,0,0,0
		c0-0.2,0.1-0.4,0.2-0.5c0-0.1,0.1-0.2,0.1-0.3c0-0.1,0.1-0.2,0.1-0.2c0.1-0.1,0.1-0.2,0.2-0.4c0,0,0,0,0,0c0.6-0.8,1.6-1.3,2.7-1.3
		c1.9,0,3.5,1.5,3.5,3.5c0,0.7-0.2,1.3-0.5,1.9c0,0.2,0.1,0.5,0.3,0.5c0.4,0.2,0.7,0,0.9-0.4c0.2-0.6,0.2-1.3,0.4-1.9c0,0,0.1,0,0,0
		C34.2,27.1,31.4,24.8,28.5,25.5z"/>
	<path class="st0" d="M26.5,28.5c0-0.1,0.1-0.2,0.1-0.2C26.6,28.3,26.6,28.4,26.5,28.5z"/>
	<path class="st0" d="M26.9,27.9C26.9,27.9,26.9,27.8,26.9,27.9C26.9,27.8,26.9,27.9,26.9,27.9z"/>
	<path class="st0" d="M39.1,29c-0.7,0-1.5,0-2.2,0c-0.5,0-0.7-0.1-0.8-0.6c-0.2-0.6-0.4-1.1-0.7-1.7c-0.3-0.6-0.3-0.7,0.2-1.2
		c0.5-0.5,1-1,1.5-1.5c-0.5-0.5-1-1-1.5-1.5C35,23,34.5,23.5,34,24.1c-0.3,0.3-0.6,0.3-0.9,0.2c-0.6-0.3-1.3-0.6-1.9-0.8
		c-0.3-0.1-0.5-0.3-0.5-0.7c0-0.3,0-0.6,0-0.9c0-0.5,0-1,0-1.5c-0.7,0-1.4,0-2.1,0c0,0.8,0,1.5,0,2.2c0,0.6-0.1,0.7-0.6,0.9
		c-0.6,0.2-1.1,0.4-1.7,0.7c-0.5,0.2-0.7,0.2-1.1-0.2c-0.5-0.5-1.1-1.1-1.6-1.6c-0.5,0.5-1,1-1.5,1.5c0,0,0,0,0,0
		c0.5,0.5,1,1,1.6,1.6c0.4,0.4,0.4,0.6,0.1,1c-0.3,0.5-0.5,1.1-0.7,1.6c-0.2,0.6-0.3,0.7-1,0.7c-0.7,0-1.5,0-2.2,0
		c0,0.7,0,1.4,0,2.1c0.8,0,1.5,0,2.2,0c0.6,0,0.7,0.1,0.9,0.7c0.2,0.5,0.4,1.1,0.7,1.6c0.3,0.6,0.3,0.7-0.2,1.2
		c-0.5,0.5-1,1-1.5,1.5c0.5,0.5,1,1,1.5,1.5c0.5-0.5,1.1-1.1,1.6-1.6c0.3-0.3,0.5-0.3,1-0.1c0.6,0.3,1.2,0.5,1.8,0.8
		c0.5,0.2,0.6,0.3,0.6,0.8c0,0.7,0,1.4,0,2.1c0,0.2,0.1,0.3,0.3,0.3c0.5,0,1,0,1.5,0c0.2,0,0.3-0.1,0.3-0.3c0-0.6,0-1.3,0-1.9
		c0-0.6,0.1-0.7,0.7-0.9c0.6-0.2,1.1-0.4,1.6-0.7c0.5-0.2,0.7-0.2,1.1,0.2c0.5,0.5,1.1,1.1,1.5,1.5c0.5-0.5,1-1,1.5-1.5
		c-0.5-0.5-1-1-1.6-1.6c-0.4-0.4-0.4-0.6-0.2-1c0.2-0.5,0.5-1,0.7-1.6c0.2-0.7,0.3-0.8,1.1-0.8c0.7,0,1.4,0,2.1,0
		C39.1,30.3,39.1,29.6,39.1,29C39.1,29,39.1,29,39.1,29z M34.1,30c-0.2,0.6-0.2,1.3-0.4,1.9c-0.2,0.4-0.5,0.6-0.9,0.4
		c-0.2-0.1-0.3-0.3-0.3-0.5c-0.3,0.5-0.7,0.9-1.2,1.1c0,0,0.1,0,0.1,0c0.3,0,0.5,0.2,0.6,0.5c0.1,0.3-0.1,0.5-0.4,0.7
		c-0.8,0.4-1.7,0.6-2.6,0.5c-2.3-0.3-4-2.1-4.1-4.5c-0.1-2.2,1.4-4.1,3.6-4.7C31.4,24.8,34.2,27.1,34.1,30C34.2,30,34.1,30,34.1,30z
		"/>
	<path class="st2" d="M29.6,26.5c-1.1,0-2,0.5-2.7,1.3c0.1-0.1,0.2-0.3,0.4-0.4c1.2-1,3-1.1,4.2-0.1c1.3,1,1.7,2.5,1,4.2
		c-0.1,0.1-0.1,0.3-0.1,0.4c0.3-0.5,0.5-1.2,0.5-1.9C33,28.1,31.5,26.5,29.6,26.5z"/>
	<path class="st2" d="M26.6,28.2c0.1-0.1,0.1-0.2,0.2-0.4C26.8,28,26.7,28.1,26.6,28.2z"/>
	<path class="st2" d="M26.4,28.7c0-0.1,0.1-0.2,0.1-0.3C26.5,28.6,26.4,28.6,26.4,28.7z"/>
	<path class="st1" d="M34.2,30c-0.2,0.6-0.2,1.3-0.5,1.9c-0.2,0.5-0.5,0.6-0.9,0.4c-0.3-0.2-0.4-0.5-0.3-0.9c0.7-1.6,0.3-3.1-1-4.2
		c-1.2-1-3-0.9-4.2,0.1c-1.2,1-1.5,2.7-0.8,4.1c0.9,1.6,2.7,2.3,4.4,1.6c0.2-0.1,0.3-0.1,0.5-0.1c0.3,0,0.5,0.2,0.6,0.5
		c0.1,0.3-0.1,0.5-0.4,0.7c-0.8,0.4-1.7,0.6-2.6,0.5c-2.3-0.3-4-2.1-4.1-4.5c-0.1-2.2,1.4-4.1,3.6-4.7C31.4,24.8,34.2,27.1,34.2,30
		C34.2,30,34.1,30,34.2,30z"/>
</g>
</svg>
