<?xml version="1.0" encoding="utf-8"?>
<!-- Generator: Adobe Illustrator 26.0.0, SVG Export Plug-In . SVG Version: 6.00 Build 0)  -->
<svg version="1.1" id="Layer_1" xmlns="http://www.w3.org/2000/svg" xmlns:xlink="http://www.w3.org/1999/xlink" x="0px" y="0px"
	 viewBox="0 0 60 60" style="enable-background:new 0 0 60 60;" xml:space="preserve">
<style type="text/css">
	.st0{fill:#50B848;}
	.st1{fill:#131F35;}
	.st2{fill:none;}
</style>
<path class="st0" d="M11.7,25.9c-3.3,0-5.9,2.6-5.9,5.9s2.6,5.9,5.9,5.9c1.8,0,3.4-0.8,4.4-2v-7.8C15,26.6,13.4,25.9,11.7,25.9z
	 M11.7,34.3c-1.4,0-2.6-1.2-2.6-2.6c0-1.4,1.1-2.6,2.6-2.6c1.4,0,2.6,1.1,2.6,2.6C14.2,33.2,13.1,34.3,11.7,34.3z"/>
<path class="st1" d="M11.7,35.1c-1.9,0-3.4-1.5-3.4-3.4s1.5-3.4,3.4-3.4s3.4,1.5,3.4,3.4S13.5,35.1,11.7,35.1z M11.7,30
	c-1,0-1.8,0.8-1.8,1.8c0,1,0.8,1.8,1.8,1.8s1.8-0.8,1.8-1.8S12.6,30,11.7,30z"/>
<path class="st2" d="M11.7,29.2c-1.4,0-2.6,1.1-2.6,2.6c0,1.4,1.1,2.6,2.6,2.6c1.4,0,2.6-1.2,2.6-2.6C14.2,30.4,13.1,29.2,11.7,29.2
	z"/>
<path class="st1" d="M11.7,38.2c-3.6,0-6.4-2.9-6.4-6.4s2.9-6.4,6.4-6.4c1.7,0,3.3,0.7,4.4,1.8v-0.7c-1.2-1-2.8-1.6-4.4-1.6
	c-3.8,0-7,3.1-7,7s3.1,7,7,7c1.7,0,3.2-0.6,4.4-1.6v-0.7C15,37.5,13.4,38.2,11.7,38.2z"/>
<path class="st1" d="M5.2,31.8c0,3.5,2.9,6.4,6.4,6.4c1.7,0,3.3-0.7,4.4-1.8v-0.8c-1.1,1.2-2.7,2-4.4,2c-3.3,0-5.9-2.7-5.9-5.9
	s2.7-5.9,5.9-5.9c1.8,0,3.4,0.8,4.4,2v-0.8c-1.2-1.1-2.7-1.8-4.4-1.8C8.1,25.3,5.2,28.2,5.2,31.8z"/>
<path class="st0" d="M32.5,11.2c-5,0-9.1,4.1-9.1,9.1s4.1,9.1,9.1,9.1c5,0,9.1-4.1,9.1-9.1S37.5,11.2,32.5,11.2z M32.5,24.2
	c-2.1,0-3.9-1.7-3.9-3.9s1.7-3.9,3.9-3.9s3.9,1.7,3.9,3.9S34.6,24.2,32.5,24.2z"/>
<path class="st1" d="M11.7,50.5c-2.4,0-4.4-2-4.4-4.5s2-4.5,4.4-4.5s4.4,2,4.4,4.5C16.1,48.5,14.1,50.5,11.7,50.5z M11.7,42.9
	c-1.8,0-3.2,1.4-3.2,3.2s1.4,3.2,3.2,3.2s3.2-1.4,3.2-3.2S13.4,42.9,11.7,42.9z"/>
<circle class="st1" cx="3.3" cy="24.6" r="0.5"/>
<circle class="st1" cx="3.3" cy="52" r="0.5"/>
<path class="st0" d="M55,55h-6.3V5.4h6.5c2.2,0,4.1,1.8,4.1,4.1v41.3C59.2,53.1,57.3,55,55,55z"/>
<path class="st2" d="M1.6,24.9v26.6c0,1.2,1,2.2,2.2,2.2h14.3c-1.2-0.8-2-2.2-2-3.7V22.7H3.8C2.6,22.7,1.6,23.7,1.6,24.9z"/>
<path class="st1" d="M32.5,49.9c-4.5,0-8.1-3.6-8.1-8.1s3.6-8.1,8.1-8.1s8.1,3.6,8.1,8.1S36.9,49.9,32.5,49.9z M32.5,35.3
	c-3.6,0-6.5,2.9-6.5,6.5c0,3.6,2.9,6.5,6.5,6.5s6.5-2.9,6.5-6.5C39,38.3,36.1,35.3,32.5,35.3z"/>
<path class="st1" d="M32.5,10.1c-5.6,0-10.2,4.6-10.2,10.2s4.6,10.2,10.2,10.2S42.7,26,42.7,20.3S38.1,10.1,32.5,10.1z M32.5,30
	c-5.3,0-9.7-4.3-9.7-9.7s4.3-9.7,9.7-9.7s9.7,4.3,9.7,9.7S37.8,30,32.5,30z"/>
<path class="st1" d="M32.5,10.7c-5.3,0-9.7,4.3-9.7,9.7s4.3,9.7,9.7,9.7s9.7-4.3,9.7-9.7S37.8,10.7,32.5,10.7z M32.5,29.5
	c-5,0-9.1-4.1-9.1-9.1s4.1-9.1,9.1-9.1c5,0,9.1,4.1,9.1,9.1S37.5,29.5,32.5,29.5z"/>
<path class="st1" d="M32.5,25c-2.6,0-4.6-2.1-4.6-4.6s2.1-4.6,4.6-4.6s4.6,2.1,4.6,4.6S35,25,32.5,25z M32.5,17.3
	c-1.7,0-3.1,1.4-3.1,3.1s1.4,3.1,3.1,3.1c1.7,0,3.1-1.4,3.1-3.1S34.2,17.3,32.5,17.3z"/>
<circle class="st1" cx="19.9" cy="9.6" r="0.8"/>
<circle class="st1" cx="45.3" cy="9.6" r="0.8"/>
<circle class="st1" cx="19.9" cy="50.8" r="0.8"/>
<circle class="st1" cx="45.3" cy="50.8" r="0.8"/>
<path class="st1" d="M59.2,25c-0.4,0-0.8,0.4-0.8,0.8v24.8c0,1.7-1.4,3.1-3.1,3.1h-6.8c0.9-1,1.5-2.3,1.5-3.7v-6.8
	c0-0.4-0.3-0.8-0.8-0.8s-0.8,0.3-0.8,0.8V50c0,2-1.7,3.7-3.7,3.7h-5.5H20.6c-2,0-3.7-1.7-3.7-3.7V10c0-2,1.7-3.7,3.7-3.7h24.1
	c2,0,3.7,1.7,3.7,3.7v24.6c0,0.4,0.3,0.8,0.8,0.8S50,35,50,34.5V10c0-2.9-2.4-5.3-5.3-5.3H20.6c-2.9,0-5.3,2.4-5.3,5.3v11.1H3.8
	c-2.1,0-3.8,1.7-3.8,3.8v26.6c0,2.1,1.7,3.8,3.8,3.8h16c0.1,0,0.3,0,0.4,0c0.1,0,0.2,0,0.4,0h18.6h5.5h10.6c2.6,0,4.7-2.1,4.7-4.7
	V25.8C60,25.4,59.7,25,59.2,25z M1.6,51.5V24.9c0-1.2,1-2.2,2.2-2.2h11.6V50c0,1.4,0.6,2.8,1.5,3.7H3.8C2.6,53.7,1.6,52.8,1.6,51.5z
	"/>
<path class="st1" d="M59.2,16.4c-0.4,0-0.8-0.4-0.8-0.8V9.4c0-1.7-1.4-3.1-3.1-3.1H39.3c-0.4,0-0.8-0.3-0.8-0.8
	c0-0.4,0.3-0.8,0.8-0.8h16.1c2.6,0,4.7,2.1,4.7,4.7v6.3C60,16.1,59.7,16.4,59.2,16.4z"/>
</svg>
