<svg xmlns="http://www.w3.org/2000/svg" viewBox="0 0 215 38.26" role="img" aria-label="TARPOR Logo">
    <defs>
        <!-- Gold Gradient for a premium look -->
        <linearGradient id="goldGradient" x1="0%" y1="0%" x2="100%" y2="0%">
            <stop offset="0%" style="stop-color:#C19A6B; stop-opacity:1" />
            <stop offset="100%" style="stop-color:#FFD700; stop-opacity:1" />
        </linearGradient>
        <style>
            .logo-path { fill: url(#goldGradient); transition: fill 0.3s ease-in-out; }
            .logo-path:hover { fill: #222; } /* Modern hover effect */
        </style>
    </defs>

    <title>TARPOR Brand Logo</title>
    <g id="logo">
        <path class="logo-path" d="M2.36.21L0,10.53h9.93l-6.31,27.52h9.44l6.33-27.52h7.57c.45,0,.89-.2,1.3-.6.4-.4.75-.91,1.09-1.52.32-.61.61-1.27.85-1.98.25-.71.45-1.39.61-2.03l.98-4.19H2.36Z"/>
        <path class="logo-path" d="M53.88,0h-19.27l2.18,7.39-17.49,30.44h10.5l2.75-4.98h14.8l.58,5.4h10.55L53.88,0ZM38.51,22.49l6.48-11.36,1.21,11.36h-7.69Z"/>
        <path class="logo-path" d="M67.45,7.4l-2.18-7.4h30c.84,0,1.6.15,2.27.46s1.22.75,1.66,1.32.73,1.27.86,2.09.09,1.75-.14,2.78l-3.44,15.09c-.23.92-.58,1.75-1.06,2.49-.48.75-1.04,1.4-1.69,1.95-.65.56-1.35,1.01-2.09,1.38-.75.36-1.48.62-2.21.77l5.16,9.92h-10.78l-5.51-9.87h-6.14l-2.24,9.87h-9.52l7.06-30.86ZM76.34,10.32l-1.84,7.74h13.31l1.78-7.74h-13.25Z"/>
        <path class="logo-path" d="M105.79,7.4l-2.18-7.4h30c.84,0,1.6.15,2.27.46.67.31,1.22.75,1.66,1.32.44.57.73,1.27.86,2.09.13.82.09,1.75-.14,2.78l-3.44,15.09c-.5,2.06-1.48,3.69-2.95,4.88-1.47,1.19-3.07,1.78-4.79,1.78h-16.58l-2.24,9.87h-9.52l7.06-30.86ZM114.69,10.32l-1.84,7.74h13.31l1.78-7.74h-13.25Z"/>
        <path class="logo-path" d="M170.71,31.61c-.5,2.06-1.47,3.69-2.93,4.88s-3.04,1.78-4.76,1.78h-19.96c-1.64,0-2.94-.59-3.9-1.78s-1.2-2.81-.75-4.88l5.74-24.95c.5-2.06,1.47-3.69,2.93-4.88s3.04-1.78,4.76-1.78h19.96c.84,0,1.6.15,2.27.46.67.31,1.22.75,1.66,1.32.44.57.73,1.27.86,2.09.13.82.09,1.75-.14,2.78l-5.74,24.95ZM166.12,10.32h-13.25l-4.07,17.61h13.25l4.07-17.61Z"/>
        <path class="logo-path" d="M182.32,7.4l-2.18-7.4h30c.84,0,1.6.15,2.27.46.67.31,1.22.75,1.66,1.32.44.57.73,1.27.86,2.09.13.82.09,1.75-.14,2.78l-3.44,15.09c-.23.92-.58,1.75-1.06,2.49-.48.75-1.04,1.4-1.69,1.95-.65.56-1.35,1.01-2.09,1.38-.75.36-1.48.62-2.21.77l5.16,9.92h-10.78l-5.51-9.87h-6.14l-2.24,9.87h-9.52l7.06-30.86ZM191.21,10.32l-1.84,7.74h13.31l1.78-7.74h-13.25Z"/>
    </g>
</svg>
