<?xml version="1.0" encoding="utf-8"?>
<!-- Generator: Adobe Illustrator 28.1.0, SVG Export Plug-In . SVG Version: 6.00 Build 0)  -->
<svg version="1.1" id="Layer_2_00000010287222928164668240000000325641232582175620_"
	 xmlns="http://www.w3.org/2000/svg" xmlns:xlink="http://www.w3.org/1999/xlink" x="0px" y="0px" viewBox="0 0 400 400"
	 style="enable-background:new 0 0 400 400;" xml:space="preserve">
<style type="text/css">
	.st0{fill:#83C5BE;stroke:#000000;}
	.st1{fill:#E29578;stroke:#000000;}
	.st2{fill:#006D77;stroke:#000000;}
	.st3{fill:#457B9D;stroke:#000000;}
	.st4{fill:#FFDDD2;stroke:#000000;}
	.st5{fill:#F4A261;stroke:#000000;}
</style>
<g id="Layer_1-2">
	<path class="st0" d="M107.5,246.9l92.5,46.8v-93.6L107.5,246.9l92.5-46.8L107.5,246.9"/>
	<path class="st1" d="M200,293.5l92.5,46.8v-93.6L200,293.5l92.5-46.8L200,293.5"/>
	<path class="st0" d="M107.5,153.3l92.5,46.8v-93.6L107.5,153.3l92.5-46.8L107.5,153.3"/>
	<path class="st2" d="M107.5,59.7l92.5,46.8V12.9L107.5,59.7L200,12.9L107.5,59.7"/>
	<path class="st2" d="M107.5,340.3l92.5,46.8v-93.6L107.5,340.3l92.5-46.8L107.5,340.3"/>
	<path class="st3" d="M292.5,340.3L200,387.1v-93.6L292.5,340.3L200,293.5L292.5,340.3"/>
	<path class="st4" d="M200,293.5l-92.5,46.8v-93.6L200,293.5l-92.5-46.8L200,293.5"/>
	<path class="st3" d="M200,200.1l-92.5,46.8v-93.6L200,200.1l-92.5-46.8L200,200.1"/>
	<path class="st4" d="M200,106.5l-92.5,46.8V59.7L200,106.5l-92.5-46.8L200,106.5"/>
	<path class="st5" d="M292.5,153.3L200,200.1v-93.6L292.5,153.3L200,106.5L292.5,153.3"/>
</g>
</svg>
